<?xml version="1.0" encoding="UTF-8" standalone="no"?>
<!DOCTYPE svg PUBLIC "-//W3C//DTD SVG 1.1//EN" "http://www.w3.org/Graphics/SVG/1.1/DTD/svg11.dtd">
<svg width="100%" height="100%" viewBox="0 0 810 257" version="1.1" xmlns="http://www.w3.org/2000/svg" xmlns:xlink="http://www.w3.org/1999/xlink" xml:space="preserve" xmlns:serif="http://www.serif.com/" style="fill-rule:evenodd;clip-rule:evenodd;stroke-linejoin:round;stroke-miterlimit:2;">
    <g transform="matrix(1,0,0,1,-1346,-1112)">
        <g transform="matrix(1.82125,0,0,1.82125,1105.03,-467.908)">
            <g transform="matrix(0.0771413,0,0,0.0771413,433.671,874.385)">
                <circle cx="1641.83" cy="1094.85" r="211.397" style="fill:url(#_Linear1);"/>
            </g>
            <g transform="matrix(1,0,0,1,2.08333,307.979)">
                <path d="M167.891,579.37C155.85,579.37 146.732,584.194 140.614,592.321C140.613,592.322 140.613,581.571 140.613,581.571L130.741,581.571L130.741,700.192L141.053,700.192L141.053,654.647C147.032,662.476 155.673,667.171 166.717,667.171C190.392,667.171 203.279,648.192 203.279,623.133C203.279,598.501 190.347,579.37 167.891,579.37ZM166.716,656.859C149.268,656.859 140.613,642.219 140.613,623.124C140.613,603.76 149.412,589.682 166.716,589.682C184.429,589.682 192.527,604.177 192.527,623.124C192.527,642.215 183.886,656.859 166.716,656.859Z" style="fill-rule:nonzero;"/>
            </g>
            <g transform="matrix(1,0,0,1,7.46109,307.979)">
                <path d="M249.196,667.171C259.081,667.171 267.185,664.278 273.366,659.149C282.542,651.536 287.52,638.906 287.52,623.124C287.52,607.706 282.655,595.107 273.498,587.461C267.333,582.313 259.205,579.37 249.196,579.37C236.978,579.37 227.393,583.846 220.842,591.584C214.384,599.212 210.872,610.081 210.872,623.124C210.872,638.627 215.788,651.313 224.951,659.014C231.126,664.204 239.245,667.171 249.196,667.171ZM249.196,656.859C241.955,656.859 236.095,654.788 231.685,650.973C224.944,645.141 221.624,635.358 221.624,623.124C221.624,611.31 224.745,601.549 231.443,595.665C235.828,591.814 241.735,589.682 249.196,589.682C256.551,589.682 262.441,591.705 266.841,595.471C273.558,601.22 276.767,610.898 276.767,623.124C276.767,635.193 273.598,645.011 266.886,650.898C262.495,654.748 256.6,656.859 249.196,656.859Z" style="fill-rule:nonzero;"/>
            </g>
            <g transform="matrix(1,0,0,1,13.2343,307.979)">
                <path d="M330.501,667.024C350.738,667.024 362.808,657.406 362.808,641.914C362.808,628.944 356.036,622.813 330.718,616.406L330.716,616.406C321.638,614.137 315.774,612.162 312.193,609.805C309.197,607.832 308.066,605.597 308.066,602.572C308.066,598.794 310.07,595.635 313.415,593.406C317.087,590.958 322.302,589.614 328.422,589.682L328.434,589.682C341.353,589.682 350.778,595.781 352.525,605.863L352.885,607.943L363.13,606.031L362.944,604.131C361.534,589.67 347.593,579.37 328.886,579.37C310.172,579.37 297.46,589.228 297.46,602.865C297.46,610.004 299.96,614.794 307.497,618.958C312.066,621.482 318.642,623.784 327.897,626.308L327.898,626.308C336.35,628.608 342.071,630.409 345.886,632.304C348.365,633.535 349.961,634.751 350.895,636.263C351.807,637.74 352.055,639.468 352.055,641.62C352.055,651.134 343.598,656.712 330.648,656.712C317.677,656.712 307.932,651.16 305.507,642.109L305.008,640.246L294.717,642.165L295.157,644.252C298.128,658.338 311.405,667.024 330.501,667.024Z" style="fill-rule:nonzero;"/>
            </g>
            <g transform="matrix(1,0,0,1,23.1904,307.979)">
                <path d="M395.095,591.883L420.044,591.883L420.044,581.571L395.095,581.571C395.095,581.571 395.095,559.557 395.095,559.557L384.782,559.557L384.782,581.571C384.782,581.571 366.144,581.571 366.144,581.571L366.144,591.883L384.782,591.883C384.782,591.883 384.782,636.629 384.782,636.629C384.782,643.882 384.703,649.12 387.165,654.521C392.091,665.337 405.508,667.788 418.412,664.923L420.044,664.561L420.044,654.576L417.619,654.979C412.912,655.762 408.946,656.072 405.665,655.709C401.308,655.227 398.275,653.509 396.489,649.937L396.482,649.922C394.698,646.489 395.095,643.057 395.095,636.629L395.095,591.883Z" style="fill-rule:nonzero;"/>
            </g>
            <g transform="matrix(1,0,0,1,28.5681,307.979)">
                <path d="M461.851,579.811L461.851,579.81C451.108,579.81 442.547,583.694 436.652,590.665C430.861,597.513 427.636,607.419 427.636,619.739L427.636,664.97L437.949,664.97L437.949,620.913C437.949,608.213 440.977,599.543 446.856,594.671C450.68,591.503 455.679,590.006 461.669,589.976L461.851,589.975C467.886,589.975 472.925,591.453 476.779,594.617C482.702,599.478 485.753,608.165 485.753,620.913L485.753,664.97L496.065,664.97L496.065,619.739C496.065,607.468 492.866,597.592 487.119,590.747C481.266,583.777 472.767,579.87 462.098,579.811L462.098,579.868C462.035,579.83 461.963,579.81 461.881,579.81L461.851,579.811Z" style="fill-rule:nonzero;"/>
            </g>
        </g>
    </g>
    <defs>
        <linearGradient id="_Linear1" x1="0" y1="0" x2="1" y2="0" gradientUnits="userSpaceOnUse" gradientTransform="matrix(-154.243,-422.794,422.794,-154.243,1729.25,1306.24)"><stop offset="0" style="stop-color:rgb(239,68,68);stop-opacity:1"/><stop offset="1" style="stop-color:rgb(192,132,252);stop-opacity:1"/></linearGradient>
    </defs>
</svg>
